<svg width="151" height="82" viewBox="0 0 151 82" fill="none" xmlns="http://www.w3.org/2000/svg">
<path d="M18.384 32.592C18.384 33.072 18.28 33.432 18.072 33.672C17.88 33.912 17.56 34.032 17.112 34.032C17.08 34.368 17.008 34.952 16.896 35.784C16.736 36.904 16.648 37.528 16.632 37.656C15.208 48.264 12.24 53.568 7.728 53.568C6.4 53.568 5.36 53.192 4.608 52.44C3.872 51.688 3.504 50.744 3.504 49.608C3.504 47.576 4.368 45.784 6.096 44.232C7.824 42.664 10.096 41.368 12.912 40.344C13.088 39.208 13.224 38.192 13.32 37.296L13.752 33.672C12.792 33.576 11.896 33.528 11.064 33.528C8.84 33.528 7.2 33.744 6.144 34.176C5.088 34.608 4.56 35.312 4.56 36.288C4.56 36.768 4.72 37.288 5.04 37.848C5.136 38.008 5.184 38.176 5.184 38.352C5.184 38.688 5.008 38.992 4.656 39.264C4.32 39.52 3.952 39.648 3.552 39.648C3.04 39.648 2.648 39.432 2.376 39C1.928 38.264 1.704 37.408 1.704 36.432C1.704 32.592 5.064 30.672 11.784 30.672C13.736 30.672 15.48 30.864 17.016 31.248C17.928 31.472 18.384 31.92 18.384 32.592ZM8.04 51C8.824 51 9.608 50.408 10.392 49.224C11.176 48.04 11.864 45.968 12.456 43.008C8.552 44.72 6.6 46.816 6.6 49.296C6.6 49.84 6.728 50.264 6.984 50.568C7.24 50.856 7.592 51 8.04 51ZM28.6138 45.648C28.8218 45.648 28.9818 45.744 29.0938 45.936C29.2218 46.128 29.2858 46.392 29.2858 46.728C29.2858 47.368 29.1338 47.864 28.8298 48.216C28.2378 48.936 27.3978 49.6 26.3098 50.208C25.2378 50.816 24.0858 51.12 22.8538 51.12C21.1738 51.12 19.8698 50.664 18.9418 49.752C18.0138 48.84 17.5498 47.592 17.5498 46.008C17.5498 44.904 17.7818 43.88 18.2458 42.936C18.7098 41.976 19.3498 41.216 20.1658 40.656C20.9978 40.096 21.9338 39.816 22.9738 39.816C23.9018 39.816 24.6458 40.096 25.2058 40.656C25.7658 41.2 26.0458 41.944 26.0458 42.888C26.0458 43.992 25.6458 44.944 24.8458 45.744C24.0618 46.528 22.7258 47.152 20.8378 47.616C21.2378 48.352 21.9978 48.72 23.1178 48.72C23.8378 48.72 24.6538 48.472 25.5658 47.976C26.4938 47.464 27.2938 46.8 27.9658 45.984C28.1578 45.76 28.3738 45.648 28.6138 45.648ZM22.5658 42.168C21.9738 42.168 21.4698 42.512 21.0538 43.2C20.6538 43.888 20.4538 44.72 20.4538 45.696V45.744C21.3978 45.52 22.1418 45.184 22.6858 44.736C23.2298 44.288 23.5018 43.768 23.5018 43.176C23.5018 42.872 23.4138 42.632 23.2378 42.456C23.0778 42.264 22.8538 42.168 22.5658 42.168ZM38.0357 45.648C38.2437 45.648 38.4037 45.744 38.5157 45.936C38.6437 46.128 38.7077 46.392 38.7077 46.728C38.7077 47.368 38.5557 47.864 38.2517 48.216C37.6597 48.936 36.8197 49.6 35.7317 50.208C34.6597 50.816 33.5077 51.12 32.2757 51.12C30.5957 51.12 29.2917 50.664 28.3637 49.752C27.4357 48.84 26.9717 47.592 26.9717 46.008C26.9717 44.904 27.2037 43.88 27.6677 42.936C28.1317 41.976 28.7717 41.216 29.5877 40.656C30.4197 40.096 31.3557 39.816 32.3957 39.816C33.3237 39.816 34.0677 40.096 34.6277 40.656C35.1877 41.2 35.4677 41.944 35.4677 42.888C35.4677 43.992 35.0677 44.944 34.2677 45.744C33.4837 46.528 32.1477 47.152 30.2597 47.616C30.6597 48.352 31.4197 48.72 32.5397 48.72C33.2597 48.72 34.0757 48.472 34.9877 47.976C35.9157 47.464 36.7157 46.8 37.3877 45.984C37.5797 45.76 37.7957 45.648 38.0357 45.648ZM31.9877 42.168C31.3957 42.168 30.8917 42.512 30.4757 43.2C30.0757 43.888 29.8757 44.72 29.8757 45.696V45.744C30.8197 45.52 31.5637 45.184 32.1077 44.736C32.6517 44.288 32.9237 43.768 32.9237 43.176C32.9237 42.872 32.8357 42.632 32.6597 42.456C32.4997 42.264 32.2757 42.168 31.9877 42.168ZM48.7508 43.704C48.7988 43.688 48.8788 43.68 48.9908 43.68C49.2308 43.68 49.4148 43.76 49.5428 43.92C49.6708 44.08 49.7348 44.296 49.7348 44.568C49.7348 45.064 49.6388 45.456 49.4468 45.744C49.2548 46.016 48.9668 46.216 48.5828 46.344C47.8468 46.584 47.0628 46.704 46.2308 46.704C45.5268 46.704 44.8628 46.608 44.2388 46.416C43.7748 47.168 43.2628 47.944 42.7028 48.744C42.0628 49.656 41.5108 50.28 41.0468 50.616C40.5828 50.952 40.0548 51.12 39.4628 51.12C38.8068 51.12 38.2868 50.864 37.9028 50.352C37.5348 49.84 37.3028 49.032 37.2068 47.928C37.0148 45.688 36.9188 43.728 36.9188 42.048V41.208C36.9348 40.68 37.0788 40.312 37.3508 40.104C37.6228 39.896 38.0308 39.792 38.5748 39.792C38.9908 39.792 39.2948 39.888 39.4868 40.08C39.6948 40.256 39.7988 40.56 39.7988 40.992C39.7988 42.832 39.9108 45.224 40.1348 48.168C41.0948 46.744 41.8148 45.608 42.2948 44.76C42.0548 44.296 41.9348 43.744 41.9348 43.104C41.9348 42.56 42.0548 42.032 42.2948 41.52C42.5348 41.008 42.8628 40.592 43.2788 40.272C43.6948 39.952 44.1668 39.792 44.6948 39.792C45.1588 39.792 45.5348 39.96 45.8228 40.296C46.1108 40.616 46.2548 41.088 46.2548 41.712C46.2548 42.432 46.0628 43.256 45.6788 44.184C46.2868 44.152 47.0948 44.032 48.1028 43.824L48.7508 43.704ZM50.604 51.12C49.612 51.12 48.82 50.76 48.228 50.04C47.636 49.32 47.34 48.376 47.34 47.208C47.34 45.928 47.636 44.72 48.228 43.584C48.82 42.432 49.604 41.512 50.58 40.824C51.572 40.12 52.62 39.768 53.724 39.768C54.076 39.768 54.308 39.84 54.42 39.984C54.548 40.112 54.652 40.352 54.732 40.704C55.068 40.64 55.42 40.608 55.788 40.608C56.572 40.608 56.964 40.888 56.964 41.448C56.964 41.784 56.844 42.584 56.604 43.848C56.236 45.688 56.052 46.968 56.052 47.688C56.052 47.928 56.108 48.12 56.22 48.264C56.348 48.408 56.508 48.48 56.7 48.48C57.004 48.48 57.372 48.288 57.804 47.904C58.236 47.504 58.82 46.864 59.556 45.984C59.748 45.76 59.964 45.648 60.204 45.648C60.412 45.648 60.572 45.744 60.684 45.936C60.812 46.128 60.876 46.392 60.876 46.728C60.876 47.368 60.724 47.864 60.42 48.216C59.764 49.032 59.068 49.72 58.332 50.28C57.596 50.84 56.884 51.12 56.196 51.12C55.668 51.12 55.18 50.944 54.732 50.592C54.3 50.224 53.972 49.728 53.748 49.104C52.916 50.448 51.868 51.12 50.604 51.12ZM51.468 48.696C51.82 48.696 52.156 48.488 52.476 48.072C52.796 47.656 53.028 47.104 53.172 46.416L54.06 42C53.388 42.016 52.764 42.272 52.188 42.768C51.628 43.248 51.18 43.888 50.844 44.688C50.508 45.488 50.34 46.336 50.34 47.232C50.34 47.728 50.436 48.096 50.628 48.336C50.836 48.576 51.116 48.696 51.468 48.696ZM60.6294 51.12C60.0214 51.12 59.5894 50.8 59.3334 50.16C59.0934 49.52 58.9734 48.496 58.9734 47.088C58.9734 45.008 59.2694 43.032 59.8614 41.16C60.0054 40.696 60.2374 40.36 60.5574 40.152C60.8934 39.928 61.3574 39.816 61.9494 39.816C62.2694 39.816 62.4934 39.856 62.6214 39.936C62.7494 40.016 62.8134 40.168 62.8134 40.392C62.8134 40.648 62.6934 41.224 62.4534 42.12C62.2934 42.76 62.1654 43.32 62.0694 43.8C61.9734 44.28 61.8934 44.872 61.8294 45.576C62.3574 44.2 62.9494 43.08 63.6054 42.216C64.2614 41.352 64.9014 40.736 65.5254 40.368C66.1654 40 66.7494 39.816 67.2774 39.816C67.7894 39.816 68.1734 39.952 68.4294 40.224C68.7014 40.48 68.8374 40.864 68.8374 41.376C68.8374 41.792 68.7494 42.576 68.5734 43.728C68.4134 44.704 68.2854 45.632 68.1894 46.512C68.0934 47.376 68.0454 48.344 68.0454 49.416C68.0454 50.024 67.9174 50.464 67.6614 50.736C67.4214 50.992 67.0214 51.12 66.4614 51.12C65.9334 51.12 65.5494 50.984 65.3094 50.712C65.0694 50.44 64.9494 50.032 64.9494 49.488C64.9494 48.848 65.0614 47.792 65.2854 46.32C65.4774 45.04 65.5734 44.224 65.5734 43.872C65.5734 43.616 65.4854 43.488 65.3094 43.488C65.1014 43.488 64.8054 43.76 64.4214 44.304C64.0534 44.832 63.6694 45.536 63.2694 46.416C62.8854 47.296 62.5734 48.224 62.3334 49.2C62.1574 49.952 61.9494 50.464 61.7094 50.736C61.4854 50.992 61.1254 51.12 60.6294 51.12Z" fill="black"/>
<path d="M100.662 45.648C100.87 45.648 101.03 45.744 101.142 45.936C101.27 46.128 101.334 46.392 101.334 46.728C101.334 47.352 101.182 47.848 100.878 48.216C100.11 49.144 99.334 49.864 98.55 50.376C97.766 50.872 96.838 51.12 95.766 51.12C94.582 51.12 93.614 50.776 92.862 50.088C92.11 49.384 91.406 48.296 90.75 46.824C90.27 45.768 89.87 44.984 89.55 44.472C89.246 43.944 88.942 43.576 88.638 43.368C88.334 43.144 87.95 43.008 87.486 42.96L87.222 44.736C86.886 47.024 86.23 48.672 85.254 49.68C84.294 50.688 82.966 51.192 81.27 51.192C80.166 51.192 79.182 50.928 78.318 50.4C77.47 49.856 76.878 49.168 76.542 48.336C76.43 48.048 76.374 47.736 76.374 47.4C76.374 46.92 76.486 46.504 76.71 46.152C76.934 45.8 77.222 45.624 77.574 45.624C77.782 45.624 77.958 45.68 78.102 45.792C78.246 45.888 78.382 46.064 78.51 46.32C79.006 47.248 79.438 47.896 79.806 48.264C80.19 48.632 80.662 48.816 81.222 48.816C81.862 48.816 82.406 48.528 82.854 47.952C83.318 47.36 83.646 46.456 83.838 45.24L84.174 42.96H83.79C83.422 42.96 83.134 42.856 82.926 42.648C82.718 42.44 82.614 42.152 82.614 41.784C82.614 41.368 82.718 41.04 82.926 40.8C83.15 40.544 83.422 40.416 83.742 40.416H84.534C84.646 39.632 84.726 39.088 84.774 38.784L85.518 33.384C85.102 33.336 84.71 33.312 84.342 33.312C82.982 33.312 81.95 33.552 81.246 34.032C80.542 34.496 80.19 35.168 80.19 36.048C80.19 36.448 80.23 36.776 80.31 37.032C80.406 37.272 80.526 37.544 80.67 37.848C80.734 37.976 80.766 38.12 80.766 38.28C80.766 38.632 80.598 38.944 80.262 39.216C79.942 39.472 79.582 39.6 79.182 39.6C78.67 39.6 78.294 39.376 78.054 38.928C77.574 38.08 77.334 37.168 77.334 36.192C77.334 35.184 77.606 34.264 78.15 33.432C78.71 32.6 79.55 31.936 80.67 31.44C81.79 30.928 83.174 30.672 84.822 30.672C85.542 30.672 86.198 30.712 86.79 30.792C87.398 30.872 88.062 31.024 88.782 31.248C89.566 31.488 89.958 31.936 89.958 32.592C89.958 33.472 89.582 33.912 88.83 33.912L87.894 40.368C89.766 40.176 91.286 39.376 92.454 37.968C93.638 36.544 94.622 34.616 95.406 32.184C95.55 31.736 95.79 31.392 96.126 31.152C96.478 30.912 96.918 30.792 97.446 30.792C97.894 30.792 98.238 30.896 98.478 31.104C98.734 31.296 98.862 31.576 98.862 31.944C98.862 32.056 98.83 32.24 98.766 32.496C97.966 35.136 96.822 37.232 95.334 38.784C93.846 40.336 92.222 41.368 90.462 41.88C91.07 42.024 91.566 42.24 91.95 42.528C92.35 42.816 92.686 43.176 92.958 43.608C93.23 44.024 93.542 44.608 93.894 45.36C94.39 46.416 94.854 47.168 95.286 47.616C95.718 48.048 96.222 48.264 96.798 48.264C97.31 48.264 97.798 48.096 98.262 47.76C98.726 47.408 99.31 46.816 100.014 45.984C100.206 45.76 100.422 45.648 100.662 45.648ZM101.827 51.12C101.107 51.12 100.515 50.792 100.051 50.136C99.6026 49.464 99.3786 48.632 99.3786 47.64C99.3786 46.44 99.4586 45.344 99.6186 44.352C99.7786 43.344 100.043 42.28 100.411 41.16C100.571 40.68 100.795 40.336 101.083 40.128C101.371 39.92 101.827 39.816 102.451 39.816C102.803 39.816 103.043 39.872 103.171 39.984C103.315 40.096 103.387 40.264 103.387 40.488C103.387 40.616 103.299 41.048 103.123 41.784C102.963 42.376 102.835 42.912 102.739 43.392C102.419 45.072 102.259 46.192 102.259 46.752C102.259 47.088 102.299 47.328 102.379 47.472C102.459 47.6 102.587 47.664 102.763 47.664C103.003 47.664 103.299 47.424 103.651 46.944C104.019 46.464 104.403 45.736 104.803 44.76C105.219 43.784 105.619 42.584 106.003 41.16C106.131 40.68 106.323 40.336 106.579 40.128C106.851 39.92 107.251 39.816 107.779 39.816C108.147 39.816 108.403 39.864 108.547 39.96C108.691 40.04 108.763 40.2 108.763 40.44C108.763 40.84 108.563 41.936 108.163 43.728C107.715 45.776 107.491 47.04 107.491 47.52C107.491 47.824 107.555 48.064 107.683 48.24C107.811 48.4 107.979 48.48 108.187 48.48C108.507 48.48 108.883 48.288 109.315 47.904C109.763 47.504 110.355 46.864 111.091 45.984C111.283 45.76 111.499 45.648 111.739 45.648C111.947 45.648 112.107 45.744 112.219 45.936C112.347 46.128 112.411 46.392 112.411 46.728C112.411 47.368 112.259 47.864 111.955 48.216C111.267 49.064 110.523 49.76 109.723 50.304C108.939 50.848 108.043 51.12 107.035 51.12C106.267 51.12 105.699 50.824 105.331 50.232C104.979 49.64 104.803 48.808 104.803 47.736C104.531 48.824 104.123 49.664 103.579 50.256C103.035 50.832 102.451 51.12 101.827 51.12ZM112.169 51.12C111.561 51.12 111.129 50.8 110.873 50.16C110.633 49.52 110.513 48.496 110.513 47.088C110.513 45.008 110.809 43.032 111.401 41.16C111.545 40.696 111.777 40.36 112.097 40.152C112.433 39.928 112.897 39.816 113.489 39.816C113.809 39.816 114.033 39.856 114.161 39.936C114.289 40.016 114.353 40.168 114.353 40.392C114.353 40.648 114.233 41.224 113.993 42.12C113.833 42.76 113.705 43.32 113.609 43.8C113.513 44.264 113.433 44.848 113.369 45.552C113.801 44.304 114.313 43.248 114.905 42.384C115.513 41.52 116.129 40.88 116.753 40.464C117.393 40.032 117.993 39.816 118.553 39.816C119.113 39.816 119.505 39.944 119.729 40.2C119.969 40.456 120.089 40.848 120.089 41.376C120.089 41.888 119.937 42.816 119.633 44.16C119.505 44.736 119.417 45.168 119.369 45.456C120.169 43.488 121.057 42.056 122.033 41.16C123.009 40.264 123.921 39.816 124.769 39.816C125.809 39.816 126.329 40.336 126.329 41.376C126.329 42 126.153 43.128 125.801 44.76C125.497 46.152 125.345 47.072 125.345 47.52C125.345 48.16 125.577 48.48 126.041 48.48C126.361 48.48 126.737 48.288 127.169 47.904C127.617 47.504 128.209 46.864 128.945 45.984C129.137 45.76 129.353 45.648 129.593 45.648C129.801 45.648 129.961 45.744 130.073 45.936C130.201 46.128 130.265 46.392 130.265 46.728C130.265 47.368 130.113 47.864 129.809 48.216C129.121 49.064 128.377 49.76 127.577 50.304C126.793 50.848 125.897 51.12 124.889 51.12C124.073 51.12 123.457 50.888 123.041 50.424C122.625 49.944 122.417 49.256 122.417 48.36C122.417 47.912 122.529 47.112 122.753 45.96C122.961 44.952 123.065 44.256 123.065 43.872C123.065 43.616 122.977 43.488 122.801 43.488C122.593 43.488 122.297 43.76 121.913 44.304C121.529 44.832 121.145 45.536 120.761 46.416C120.377 47.296 120.065 48.224 119.825 49.2C119.649 49.968 119.441 50.48 119.201 50.736C118.977 50.992 118.609 51.12 118.097 51.12C117.569 51.12 117.169 50.872 116.897 50.376C116.641 49.864 116.513 49.248 116.513 48.528C116.513 47.92 116.593 47.04 116.753 45.888C116.881 44.864 116.945 44.192 116.945 43.872C116.945 43.616 116.857 43.488 116.681 43.488C116.441 43.488 116.137 43.776 115.769 44.352C115.401 44.928 115.041 45.664 114.689 46.56C114.353 47.456 114.081 48.336 113.873 49.2C113.697 49.952 113.489 50.464 113.249 50.736C113.025 50.992 112.665 51.12 112.169 51.12ZM131.276 51.12C130.284 51.12 129.492 50.76 128.9 50.04C128.308 49.32 128.012 48.376 128.012 47.208C128.012 45.928 128.308 44.72 128.9 43.584C129.492 42.432 130.276 41.512 131.252 40.824C132.244 40.12 133.292 39.768 134.396 39.768C134.748 39.768 134.98 39.84 135.092 39.984C135.22 40.112 135.324 40.352 135.404 40.704C135.74 40.64 136.092 40.608 136.46 40.608C137.244 40.608 137.636 40.888 137.636 41.448C137.636 41.784 137.516 42.584 137.276 43.848C136.908 45.688 136.724 46.968 136.724 47.688C136.724 47.928 136.78 48.12 136.892 48.264C137.02 48.408 137.18 48.48 137.372 48.48C137.676 48.48 138.044 48.288 138.476 47.904C138.908 47.504 139.492 46.864 140.228 45.984C140.42 45.76 140.636 45.648 140.876 45.648C141.084 45.648 141.244 45.744 141.356 45.936C141.484 46.128 141.548 46.392 141.548 46.728C141.548 47.368 141.396 47.864 141.092 48.216C140.436 49.032 139.74 49.72 139.004 50.28C138.268 50.84 137.556 51.12 136.868 51.12C136.34 51.12 135.852 50.944 135.404 50.592C134.972 50.224 134.644 49.728 134.42 49.104C133.588 50.448 132.54 51.12 131.276 51.12ZM132.14 48.696C132.492 48.696 132.828 48.488 133.148 48.072C133.468 47.656 133.7 47.104 133.844 46.416L134.732 42C134.06 42.016 133.436 42.272 132.86 42.768C132.3 43.248 131.852 43.888 131.516 44.688C131.18 45.488 131.012 46.336 131.012 47.232C131.012 47.728 131.108 48.096 131.3 48.336C131.508 48.576 131.788 48.696 132.14 48.696ZM149.293 43.104C149.645 43.104 149.941 43.232 150.181 43.488C150.437 43.728 150.565 44.032 150.565 44.4C150.565 44.608 150.517 44.832 150.421 45.072C150.165 45.664 149.805 46.16 149.341 46.56C148.877 46.96 148.365 47.16 147.805 47.16C147.357 47.16 146.973 47 146.653 46.68C146.349 46.36 146.197 45.928 146.197 45.384C146.197 45.08 146.213 44.752 146.245 44.4C146.277 44.144 146.293 43.968 146.293 43.872C146.293 43.744 146.261 43.648 146.197 43.584C146.149 43.52 146.085 43.488 146.005 43.488C145.781 43.488 145.477 43.76 145.093 44.304C144.709 44.832 144.325 45.536 143.941 46.416C143.557 47.296 143.245 48.224 143.005 49.2C142.829 49.968 142.629 50.48 142.405 50.736C142.181 50.992 141.813 51.12 141.301 51.12C140.693 51.12 140.261 50.8 140.005 50.16C139.765 49.52 139.645 48.496 139.645 47.088C139.645 45.008 139.941 43.032 140.533 41.16C140.677 40.696 140.909 40.36 141.229 40.152C141.565 39.928 142.029 39.816 142.621 39.816C142.941 39.816 143.165 39.856 143.293 39.936C143.421 40.016 143.485 40.168 143.485 40.392C143.485 40.648 143.365 41.224 143.125 42.12C142.965 42.76 142.837 43.32 142.741 43.8C142.645 44.28 142.565 44.872 142.501 45.576C143.029 44.2 143.621 43.08 144.277 42.216C144.933 41.352 145.573 40.736 146.197 40.368C146.821 40 147.389 39.816 147.901 39.816C148.365 39.816 148.717 39.952 148.957 40.224C149.213 40.48 149.341 40.864 149.341 41.376C149.341 41.68 149.253 42.256 149.077 43.104H149.293Z" fill="url(#paint0_linear_154_637)"/>
<defs>
<linearGradient id="paint0_linear_154_637" x1="75.5" y1="20" x2="75.5" y2="62" gradientUnits="userSpaceOnUse">
<stop stop-color="#FF9C1A"/>
<stop offset="1" stop-color="#ED250A"/>
</linearGradient>
</defs>
</svg>
